<svg width="64" height="64" viewBox="0 0 64 64" fill="none" xmlns="http://www.w3.org/2000/svg">
<path d="M14.1662 38.1678C14.2164 38.1678 14.2666 38.1678 14.3418 38.1678V22.1051L32.2618 11.7647L45.363 19.3443C45.7144 18.2651 46.3669 17.3365 47.2203 16.6588L32.2367 8L11.0791 20.2227V39.0714C11.9575 38.4941 13.0117 38.1678 14.1662 38.1678Z" fill="#51B981"/>
<path d="M50.709 26.698C50.5082 26.698 50.3325 26.698 50.1568 26.6729V42.7859L32.2368 53.1263L19.4368 45.7474C19.0604 46.8016 18.3576 47.7051 17.4541 48.3576L32.2117 56.891L53.3694 44.6682V26.0204C52.5914 26.4471 51.6878 26.698 50.709 26.698Z" fill="white"/>
<path d="M50.5082 17.1106C48.3247 17.1106 46.5427 18.8925 46.5427 21.0761C46.5427 21.7537 46.7184 22.3812 47.0196 22.9333L35.7255 33.4243C35.0227 32.8219 34.1192 32.4455 33.1153 32.4455C30.9318 32.4455 29.1498 34.2274 29.1498 36.411C29.1498 36.6117 29.1749 36.8376 29.2 37.0384L16.5757 40.8282C15.8729 40.2008 14.9694 39.8243 13.9655 39.8243C11.782 39.8243 10 41.6062 10 43.7898C10 45.9733 11.782 47.7553 13.9655 47.7553C16.149 47.7553 17.931 45.9733 17.931 43.7898C17.931 43.5388 17.9059 43.2627 17.8557 43.0117L30.3545 39.247C31.0573 39.9247 32.0361 40.3513 33.1153 40.3513C35.2988 40.3513 37.0808 38.5694 37.0808 36.3859C37.0808 36.1098 37.0557 35.8588 37.0055 35.6078L48.7765 24.6149C49.3035 24.8659 49.8808 25.0164 50.5082 25.0164C52.6918 25.0164 54.4737 23.2345 54.4737 21.051C54.4737 18.8674 52.6918 17.1106 50.5082 17.1106ZM13.9655 45.3208C13.1373 45.3208 12.4596 44.6431 12.4596 43.8149C12.4596 42.9866 13.1373 42.309 13.9655 42.309C14.7937 42.309 15.4714 42.9866 15.4714 43.8149C15.4714 44.6431 14.7937 45.3208 13.9655 45.3208ZM33.1153 37.9419C32.2871 37.9419 31.6094 37.2643 31.6094 36.4361C31.6094 35.6078 32.2871 34.9302 33.1153 34.9302C33.9435 34.9302 34.6212 35.6078 34.6212 36.4361C34.6212 37.2643 33.9435 37.9419 33.1153 37.9419ZM50.5082 22.5819C49.68 22.5819 49.0023 21.9043 49.0023 21.0761C49.0023 20.2478 49.68 19.5702 50.5082 19.5702C51.3365 19.5702 52.0141 20.2478 52.0141 21.0761C52.0141 21.9043 51.3365 22.5819 50.5082 22.5819Z" fill="#51B981"/>
</svg>
