<svg width="64" height="64" viewBox="0 0 64 64" fill="none" xmlns="http://www.w3.org/2000/svg">
<path d="M57 16.3548C57 11.1883 52.8117 7 47.6452 7H16.3548C11.1883 7 7.00001 11.1883 7.00001 16.3548V47.6452C7.00001 52.8117 11.1883 57 16.3548 57H47.6452C52.8117 57 57 52.8117 57 47.6452V16.3548Z" fill="#0246CC"/>
<path d="M32.0001 24.6297C39.9241 24.6297 46.3479 22.4225 46.3479 19.6998C46.3479 16.9771 39.9241 14.7699 32.0001 14.7699C24.076 14.7699 17.6522 16.9771 17.6522 19.6998C17.6522 22.4225 24.076 24.6297 32.0001 24.6297Z" fill="white"/>
<path d="M17.6581 31.6731V36.5728C17.6581 38.1893 23.2453 40.537 32.0001 40.537C40.7549 40.537 46.3421 38.1893 46.3421 36.5728V31.6731C43.3928 33.5957 37.6764 34.5907 32.0001 34.5907C26.3237 34.5907 20.6074 33.5957 17.6581 31.6731Z" fill="#287EFF"/>
<path d="M17.6581 23.3177V28.7833C17.6581 30.3997 23.2453 32.7475 32.0001 32.7475C40.7549 32.7475 46.3421 30.3997 46.3421 28.7833V23.3177C43.5976 25.4296 38.33 26.8012 32.0001 26.8012C25.6701 26.8012 20.4025 25.4296 17.6581 23.3177Z" fill="#96C0FF"/>
<path d="M17.6581 39.6017V44.5014C17.6581 46.1178 23.2453 48.4656 32.0001 48.4656C40.7549 48.4656 46.3421 46.1178 46.3421 44.5014V39.6017C43.3928 41.5243 37.6764 42.5193 32.0001 42.5193C26.3237 42.5193 20.6074 41.5243 17.6581 39.6017Z" fill="#0258ED"/>
</svg>
