<?xml version="1.0" encoding="UTF-8" standalone="no"?>
<!-- Created with Inkscape (http://www.inkscape.org/) -->

<svg
   xmlns:dc="http://purl.org/dc/elements/1.1/"
   xmlns:cc="http://creativecommons.org/ns#"
   xmlns:rdf="http://www.w3.org/1999/02/22-rdf-syntax-ns#"
   xmlns:svg="http://www.w3.org/2000/svg"
   xmlns="http://www.w3.org/2000/svg"
   xmlns:sodipodi="http://sodipodi.sourceforge.net/DTD/sodipodi-0.dtd"
   xmlns:inkscape="http://www.inkscape.org/namespaces/inkscape"
   width="210mm"
   height="297mm"
   viewBox="0 0 210 297"
   version="1.1"
   id="svg839"
   sodipodi:docname="welcome_page_background_logo.svg"
   inkscape:version="0.92.4 (5da689c313, 2019-01-14)">
  <defs
     id="defs833" />
  <sodipodi:namedview
     id="base"
     pagecolor="#ffffff"
     bordercolor="#666666"
     borderopacity="1.0"
     inkscape:pageopacity="0.0"
     inkscape:pageshadow="2"
     inkscape:zoom="0.49497475"
     inkscape:cx="105.56853"
     inkscape:cy="227.04225"
     inkscape:document-units="mm"
     inkscape:current-layer="g1433"
     showgrid="false"
     inkscape:window-width="1920"
     inkscape:window-height="1111"
     inkscape:window-x="-9"
     inkscape:window-y="-9"
     inkscape:window-maximized="1" />
  <metadata
     id="metadata836">
    <rdf:RDF>
      <cc:Work
         rdf:about="">
        <dc:format>image/svg+xml</dc:format>
        <dc:type
           rdf:resource="http://purl.org/dc/dcmitype/StillImage" />
      </cc:Work>
    </rdf:RDF>
  </metadata>
  <g
     inkscape:label="Layer 1"
     inkscape:groupmode="layer"
     id="layer1">
    <g
       id="g1433"
       transform="matrix(3.0412134,0,0,3.0412134,358.75342,-262.82758)"
       style="stroke-width:0.32881615">
      <path
         sodipodi:nodetypes="csssssssssscsssssssssssccccssssssssscsssssssccsccscssssssssssssscssscssscsssssssscsccssscssscssssccsccscssssscccsssssssss"
         inkscape:connector-curvature="0"
         id="path27812"
         d="m -93.197107,166.3954 c -0.05172,-1.29481 0.594982,-3.35302 1.437138,-4.57379 1.891622,-2.74204 2.029412,-5.84 0.293897,-6.6078 -1.04291,-0.46139 -1.04291,-0.59479 0,-0.66701 2.191192,-0.15173 1.452702,-4.60458 -1.256233,-7.57465 -3.514805,-3.85363 -11.158085,-4.00334 -13.546095,-0.26532 -0.89292,1.39772 -1.6235,2.06512 -1.6235,1.48311 0,-0.58202 -1.87723,0.95157 -4.17164,3.40797 -2.2944,2.4564 -4.17164,4.04039 -4.17164,3.51997 0,-1.79396 10.46877,-12.06316 13.01067,-12.76264 3.15885,-0.86925 4.565644,-2.6804 6.356884,-8.18405 0.83164,-2.55525 -0.207555,-9.06867 1.317232,-2.35102 0.285517,2.313 -0.771249,4.31077 -1.916307,6.36988 -2.583679,4.64612 -2.580439,4.83201 0.08412,4.83201 2.634853,0 8.263052,5.91711 8.263052,8.68721 0,1.74251 0.327995,1.66461 2.526691,-0.60008 2.078508,-2.14089 3.445732,-2.53119 7.707912,-2.20035 5.040267,0.39124 5.215157,0.29918 6.428543,-3.38375 0.686025,-2.08225 2.379867,-4.35169 3.764094,-5.04318 3.058289,-1.52778 3.11966,-2.22444 0.430953,-4.89225 -1.147201,-1.13828 -2.710985,-4.99436 -2.465249,-6.2869 1.451153,-7.63292 0.688046,-0.43433 1.112724,1.9762 0.784026,4.45027 5.206105,7.26041 10.63741,6.75984 2.636917,-0.24302 3.661788,-0.20803 2.27749,0.0778 l -2.516906,0.51964 3.038359,2.787 3.038362,2.78699 -3.927698,-2.43305 c -4.931164,-3.05465 -10.171005,-2.25756 -13.235121,2.01335 -4.113451,5.73352 -1.962331,9.52244 5.081646,8.95065 3.387052,-0.27494 3.444229,-0.23481 0.609166,0.4275 -2.08546,0.4872 -2.695906,1.03565 -1.830698,1.6448 0.713914,0.50263 1.845543,2.04296 2.51473,3.42295 0.812239,1.67499 -0.312644,0.99635 -3.383847,-2.04146 -4.402864,-4.35499 -4.615212,-4.43814 -4.941716,-1.93492 -0.187641,1.43858 0.42685,4.00087 1.365533,5.69397 l 1.706699,3.07837 -2.147714,-2.69943 c -1.181247,-1.48468 -2.147719,-4.13102 -2.147719,-5.88075 0,-3.53738 -1.524282,-4.56945 -6.74867,-4.56945 -7.77514,0 -11.053242,9.10474 -5.249049,14.57894 1.500315,1.41502 2.232367,2.57275 1.62678,2.57275 -1.429128,0 -5.272705,-4.21681 -5.272705,-5.78471 0,-2.38506 -2.071296,0.25023 -3.018157,3.83998 -0.654346,2.48077 -0.99567,2.90143 -1.059424,1.3057 z m -4.989722,-7.97294 c 1.609388,-1.55237 5.828753,-3.93286 6.513767,-3.91613 0.685014,0.0168 -2.387243,2.03181 -3.96465,3.10408 -1.577399,1.07227 -2.868,2.34496 -2.868,2.82819 0,0.48323 -0.586636,0.86234 -1.303639,0.84247 -0.716999,-0.0199 0.01313,-1.30625 1.622522,-2.85861 z m -10.463931,-3.96593 c 0,-2.83003 0.87834,-7.89342 1.12692,-6.47841 0.24858,1.41501 -0.42637,7.63615 -0.67495,9.05116 -0.24858,1.41502 -0.45197,0.25728 -0.45197,-2.57275 z m -2.95272,-13.21271 c -1.90884,-1.67673 -1.87557,-1.70053 0.58285,-0.41685 3.19238,1.66694 6.77135,3.59049 5.44629,3.59049 -0.55957,0 -4.91571,-2.19561 -6.02914,-3.17364 z m 13.797641,-14.23878 c -0.382806,-1.56741 -2.591071,-5.03668 -4.907251,-7.70949 -3.35941,-3.87665 -4.9947,-4.89666 -8.08448,-5.04264 -3.83988,-0.18142 -3.84411,-0.18696 -0.4909,-0.64359 l 3.38235,-0.46059 -1.57208,-3.64434 c -0.86465,-2.00438 -0.97877,-2.68812 -0.25362,-1.51943 0.72516,1.1687 2.24289,3.45182 3.37275,5.0736 l 2.05428,2.94869 0.79434,-2.7867 c 0.75815,-2.65973 0.77828,-2.64474 0.4419,0.32902 -0.38068,3.36537 1.38939,5.76051 5.627192,7.61433 1.881897,0.82324 2.079001,1.1509 0.724044,1.20365 -1.551596,0.0604 -1.670646,0.46406 -0.714547,2.42277 0.630985,1.29265 0.96157,2.96099 0.734639,3.70741 -0.226934,0.74643 -0.72581,0.0747 -1.108617,-1.49269 z m 27.562644,-0.27709 c -0.07399,-1.42427 -0.984273,-2.00103 -3.158194,-2.00103 -2.972774,0 -6.331951,-2.48535 -6.331951,-4.68482 0,-0.60012 -1.439742,-0.27484 -3.199427,0.72285 -1.759687,0.99769 -3.77925,1.662 -4.457365,1.35901 -0.706723,-0.31578 -0.50152,-0.17831 0.464009,-0.23006 0.926445,-0.0496 2.906537,-1.6405 4.384926,-2.91551 2.267229,-1.95532 2.681603,-3.22077 2.647245,-8.08432 -0.02241,-3.17136 0.239219,-6.07307 0.581391,-6.44823 0.674719,-0.73975 0.934095,3.09658 0.744939,11.01813 -0.245541,10.28303 5.094984,11.11105 12.891298,1.99872 2.880246,-3.36643 3.604693,-4.00962 1.609877,-1.42931 l -3.626937,4.69148 3.626937,0.70706 c 1.994816,0.38888 5.894934,-1.1842 5.321336,-1.05033 -0.573603,0.13386 -2.37229,2.95101 -0.65149,3.8149 1.720799,0.8639 2.411863,1.59394 1.53569,1.62231 -0.87617,0.0284 -2.643333,-0.755 -3.927026,-1.74081 -3.264384,-2.50688 -6.752659,-1.68748 -7.630321,1.79238 -0.453642,1.79864 -0.759529,2.11663 -0.824937,0.85758 z m -22.767393,-3.93687 c 1.014716,-0.28991 5.797409,-1.27124 6.503493,-0.65654 0.706083,0.31322 -3.498902,1.24933 -5.219706,1.22602 -1.7208,-0.0233 -2.298505,-0.27957 -1.283787,-0.56948 z m 33.857331,-2.77983 c 0.70744,-0.78145 1.548974,-1.13278 1.870073,-0.78073 0.321098,0.35206 -0.257718,0.99143 -1.286258,1.42083 -1.486353,0.62053 -1.606144,0.48919 -0.583815,-0.6401 z m -15.626263,-7.67166 c 1.003801,-1.15298 2.009299,-1.93724 2.234435,-1.7428 0.616081,0.53205 -3.641407,4.89308 -4.682163,5.06009 -5.072726,0.81397 1.443928,-2.16432 2.447728,-3.31729 z m -27.69452,-5.33608 c 0.0213,-1.88669 0.25499,-2.52009 0.51942,-1.40755 0.26442,1.11254 -0.21256,4.38105 -0.49823,5.1552 -1.59374,4.72776 -0.0424,-1.86097 -0.0212,-3.74765 z m 18.436034,0.85758 c -1.297245,-1.81357 -1.260357,-1.85401 0.393756,-0.43171 1.0038,0.86312 4.321821,3.81413 4.321821,4.05158 0,0.94109 -3.353152,-1.71518 -4.715577,-3.61987 z m 2.807355,-6.81136 c -0.565972,-1.629641 -0.446179,-1.760982 0.583816,-0.6401 0.712741,0.77564 1.983114,4.69948 1.662015,5.05153 -0.321098,0.35206 -1.854188,-3.28374 -2.245831,-4.41143 z"
         style="fill:#aa0000;fill-opacity:0.05882353;stroke-width:0.08699927"
         inkscape:export-xdpi="300"
         inkscape:export-ydpi="300" />
      <g
         style="stroke-width:0.91432983"
         id="g5146"
         inkscape:export-xdpi="300"
         inkscape:export-ydpi="300"
         transform="matrix(0.3596253,0,0,0.3596253,-139.82004,76.838102)">
        <path
           style="fill:#aa0000;fill-opacity:0.09239131;stroke:#000000;stroke-width:2.68172932;stroke-linecap:butt;stroke-linejoin:miter;stroke-miterlimit:4;stroke-dasharray:none;stroke-opacity:0.17934786"
           d="m -116.31175,160.07935 3.37764,-0.0392 h 7.72439 c 0,0 1.87972,-0.20096 1.99722,-0.20096 0.1179,0 1.85034,-0.40143 1.85034,-0.40143 l 0.38503,-0.2387 0.18689,-0.27694 0.3946,-0.70292 0.425539,-0.95148 0.129521,-0.59641 0.32834,-1.14944 0.264311,-1.86771 0.161229,-4.19718 0.161954,-5.36197 0.02954,-1.58646 0.132421,-4.71938 0.175996,-4.19718 0.08836,-3.13283 0.161229,-6.828 0.24959,-4.49843 0.116438,-3.53582 0.207708,-2.85423 0.363686,-1.91707 0.290065,-0.68625 0.110392,-0.1941 0.09344,-0.14214 0.176724,0.11372 0.28566,0.88751 0.295949,2.16557 0.222962,2.14424 0.430694,4.07548 0.156144,1.53171 c 0.0048,0.0441 0.877705,12.36863 0.877705,12.36863 l 0.205531,3.81561 0.153966,3.13287 0.183259,3.40393 0.432895,5.25148 0.345286,4.72944 0.499155,5.42221 0.139928,0.96392 0.132424,0.84345 0.234823,0.89368 0.550696,1.73709 0.550693,1.48612 0.447619,1.06436 0.68321,0.94387 0.602237,0.61249 c 0,0 0.726643,0.34115 0.749011,0.38183 0.0218,0.0392 1.218909,0.0902 1.218909,0.0902 l 1.328957,-0.18086 3.039833,-1.02417 2.658054,-1.02421 4.434882,-1.51622 4.831418,-1.77728 4.43491,-1.47603 4.62588,-1.20498 1.79159,-0.40143 4.15507,-0.84624 5.02588,-0.71003 1.95046,-0.0706"
           id="path6027"
           sodipodi:nodetypes="cccscccccccccccccccccccccccccccscccccccccccccccccccccccccccc"
           inkscape:connector-curvature="0" />
        <path
           style="fill:#aa0000;fill-opacity:0.03921569;stroke:#aa0000;stroke-width:0.09143297;stroke-miterlimit:4;stroke-dasharray:none;stroke-opacity:0.95294118"
           d="m -109.87454,226.46942 c 0.13913,-3.70399 0.82632,-4.45741 1.75207,-1.92098 0.83772,2.29524 0.7347,5.0376 -0.22895,6.09414 -0.96365,1.05653 -1.64905,-0.82139 -1.52313,-4.17316 z m 21.541501,-1.28839 c -1.01598,-1.80236 0.14807,-2.33541 2.72884,-1.2496 5.02399,2.11373 5.9432,4.39273 1.77176,4.39273 -1.50086,0 -3.52613,-1.41441 -4.5006,-3.14313 z m -18.690051,-7.9853 c 0.002,-1.74875 1.72096,-5.65842 3.81942,-8.68815 3.510111,-5.06787 4.086561,-4.81349 7.204871,3.17955 3.02696,7.75887 2.94671,8.06928 -0.75028,2.90209 -4.003101,-5.59504 -4.241091,-5.59504 -7.208911,0 -1.68803,3.18234 -3.06732,4.35527 -3.0651,2.60651 z m 57.77538,-6.41722 c -4.89186,-6.46254 -8.4088,-28.6482 -5.37344,-33.89689 2.62122,-4.53258 3.66346,1.79626 2.60992,15.84829 -0.30225,4.03132 1.54087,10.82761 4.09583,15.10286 5.16023,8.6347 4.34252,10.44265 -1.33231,2.94574 z m 11.78355,-12.76103 c -5.5057,-6.0651 -9.13943,-11.02746 -8.07496,-11.02746 2.31239,0 19.53533,18.12624 19.53533,20.5599 0,2.81164 -1.04032,1.94633 -11.46037,-9.53244 z m -115.34932,-4.66836 c 0,-7.86939 0.56554,-11.08868 1.25677,-7.15399 0.69122,3.93469 0.69122,10.37328 0,14.30797 -0.69123,3.93469 -1.25677,0.7154 -1.25677,-7.15398 z m 36.13668,5.96455 c 1.96716,-2.17296 4.30718,-3.14989 5.20005,-2.17095 0.89287,0.97895 -0.71662,2.75683 -3.57665,3.95085 -4.13306,1.72549 -4.46617,1.36027 -1.6234,-1.7799 z m 12.37329,-2.78501 c -2.89999,-2.05478 -3.14166,-3.0984 -0.725,-3.13086 1.99374,-0.0268 3.62499,-2.59192 3.62499,-5.70031 0,-9.18945 -8.29113,-19.46478 -18.25488,-22.62357 -7.59126,-2.40664 -8.05811,-2.99934 -2.54697,-3.23354 7.82596,-0.33256 23.701831,15.61447 23.701831,23.80807 0,5.05347 0.51787,5.00818 6.29212,-0.5503 5.87748,-5.65785 5.84154,-5.37604 -0.54536,4.27653 -3.76062,5.68344 -6.91832,10.31162 -7.01712,10.28485 -0.0988,-0.0268 -2.137121,-1.43567 -4.529611,-3.13087 z m -65.89811,-6.03717 c 5.67509,-9.21182 30.50144,-32.11742 34.81064,-32.11742 1.69448,0 5.704,-2.50389 8.91005,-5.56421 5.81993,-5.55537 5.8203,-5.55048 0.22835,3.07964 -3.08046,4.75411 -7.81058,8.6888 -10.51138,8.74376 -2.70079,0.0549 -6.73283,2.9524 -8.96008,6.43879 -2.22724,3.48637 -4.77221,5.54654 -5.65546,4.57813 -0.88326,-0.9684 -6.53678,3.69079 -12.56338,10.35376 -6.02659,6.66297 -8.84303,8.68237 -6.25874,4.48755 z m 139.17804,-2.52532 c 2.82159,-0.80616 6.73658,-0.75314 8.69997,0.1178 1.96338,0.87096 -0.3452,1.53055 -5.13018,1.46574 -4.78498,-0.0648 -6.39139,-0.77739 -3.56979,-1.58354 z m -50.623759,-9.50725 c 2.09343,-0.91848 4.59467,-0.80552 5.55831,0.25103 0.96364,1.05654 -0.74917,1.80802 -3.80624,1.66996 -3.37832,-0.15254 -4.06549,-0.90598 -1.75207,-1.92098 z m 14.49995,0 c 2.09343,-0.91848 4.594669,-0.80552 5.558309,0.25103 0.96364,1.05654 -0.74917,1.80802 -3.806239,1.66996 -3.37832,-0.15254 -4.06549,-0.90598 -1.75207,-1.92098 z m 15.131879,-9.62745 c -0.10408,-4.54415 11.28331,-16.81649 15.60385,-16.81649 1.64913,0 0.13661,2.19773 -3.36117,4.88384 -3.49778,2.68611 -7.66345,7.33621 -9.25705,10.33353 -1.5936,2.99733 -2.93713,3.71694 -2.98563,1.59912 z M -161.02403,156.6089 c -5.30787,-4.66242 -5.21534,-4.7286 1.62072,-1.1591 8.87696,4.63519 10.52214,6.10382 6.83758,6.10382 -1.55598,0 -5.36221,-2.22512 -8.4583,-4.94472 z m 122.19351,-13.87711 c -4.46153,-5.10575 -7.4187,-11.18664 -6.57149,-13.51308 1.06696,-2.92987 0.84612,-2.74313 1.0047,0.95111 0.12591,2.93339 4.45556,8.47157 8.68686,12.12077 6.22764,5.37089 10.50934,6.34446 22.47492,5.11033 14.15955,-1.46042 14.29345,-1.40312 3.18168,1.3615 -17.78053,4.42382 -20.05847,3.94644 -28.77667,-6.03063 z m -79.74399,-11.64885 c 0.13913,-3.70399 0.82632,-4.4574 1.75207,-1.92097 0.83773,2.29523 0.7347,5.03759 -0.22895,6.09413 -0.96364,1.05654 -1.64905,-0.82138 -1.52313,-4.17316 z m -4.08281,-14.06742 c -3.34601,-13.70028 -24.082,-34.885531 -34.67575,-35.427023 -8.73623,-0.446549 -8.82202,-0.559236 -1.36919,-1.798435 7.86181,-1.307203 7.90202,-1.43565 3.58376,-11.446914 -2.402,-5.568679 -2.71748,-7.465975 -0.70106,-4.216213 2.01642,3.249762 6.19299,9.537379 9.28127,13.97248 5.26152,7.556099 5.758,7.684556 7.88536,2.040214 1.75875,-4.666354 2.12713,-3.976442 1.63492,3.061877 -0.51981,7.4329 1.2026,10.180005 9.46934,15.10286 5.55759,3.309554 8.44792,6.017374 6.42294,6.017374 -2.81623,0 -2.93182,1.53639 -0.49167,6.53537 1.75455,3.59445 5.57379,16.6405 4.94276,18.71606 -0.63102,2.07556 -4.91822,-8.1992 -5.98268,-12.55765 z m 76.64267,-0.77047 c -0.20575,-3.96045 -2.73694,-5.56421 -8.7819,-5.56421 -8.26631,0 -17.607079,-6.91096 -17.607079,-13.026962 0,-1.668748 -3.85018,-0.85115 -8.55595,1.816886 -4.70578,2.668036 -18.48917,8.191976 -21.761211,6.743626 -2.07294,-0.0384 11.248241,-4.0304 17.992211,-8.166125 8.46566,-5.191552 12.32495,-8.032941 12.32495,-12.836014 0,-3.68621 1.12999,-5.936511 2.51108,-5.000665 1.38109,0.935844 1.88002,5.320899 1.10873,9.744565 -1.79525,10.296589 3.71943,17.545139 13.348309,17.545139 5.38911,0 11.73669,-4.88408 22.11983,-17.019898 8.00902,-9.360937 10.02347,-11.149434 4.47654,-3.974434 l -10.08532,13.045456 8.63533,1.589776 c 4.74943,0.87438 9.0352,3.62047 9.52395,6.10242 0.72142,3.66353 0.0694,3.76717 -3.46537,0.55081 -6.82917,-6.21407 -17.20785,-2.98444 -19.49022,6.06496 -1.26143,5.00144 -2.112,5.88567 -2.29388,2.38467 z m 31.06707,-4.55666 c 2.09343,-0.91848 4.59467,-0.80552 5.55831,0.25103 0.96364,1.05653 -0.74917,1.80802 -3.80624,1.66996 -3.37832,-0.15255 -4.06549,-0.90598 -1.75207,-1.92098 z m -106.90645,-9.33873 c 1.99375,-0.88205 16.28177,2.16383 18.27551,3.04587 3.48181,1.29519 0.3625,1.60372 -3.62498,1.60372 -3.98749,0 -16.64427,-3.76755 -14.65053,-4.64959 z m 63.22535,-26.113937 c 2.79124,-3.206049 5.5872,-5.38682 6.21323,-4.846162 1.71312,1.479478 -5.81847,10.675334 -8.74331,10.675334 -1.39969,0 -0.26116,-2.623128 2.53008,-5.829172 z M -84.373489,63.782487 c -3.60722,-5.042942 -3.50465,-5.155405 1.0949,-1.200455 2.79124,2.400064 5.07498,4.903959 5.07498,5.56421 0,2.616878 -2.38143,0.932572 -6.16988,-4.363755 z m 12.42776,-3.974437 c 0,-4.37188 0.65822,-6.160376 1.46271,-3.974436 0.80449,2.18594 0.80449,5.762933 0,7.948873 -0.80449,2.185939 -1.46271,0.397443 -1.46271,-3.974437 z m -4.62143,-14.96573 c -1.57378,-4.531489 -1.24068,-4.896703 1.6234,-1.779895 1.9819,2.156794 2.87293,4.722396 1.98006,5.701339 -0.89286,0.978942 -2.51443,-0.785708 -3.60346,-3.921444 z"
           id="path27810"
           inkscape:connector-curvature="0"
           sodipodi:nodetypes="cscccsssscsssscsssssssssssssccscsssssssscssssscscssccccccccccsccccssscsssssscsssscscccssssssssssssssssscsscsssscscssscccccccscsssssssssscsssss" />
      </g>
    </g>
  </g>
</svg>
